<svg xmlns="http://www.w3.org/2000/svg" version="1.1" xmlns:xlink="http://www.w3.org/1999/xlink" xmlns:svgjs="http://svgjs.dev/svgjs" width="1440" height="560" preserveAspectRatio="none" viewBox="0 0 1440 560"><g mask="url(&quot;#SvgjsMask1908&quot;)" fill="none"><rect width="1440" height="560" x="0" y="0" fill="url(&quot;#SvgjsRadialGradient1909&quot;)"></rect><path d="M -43.940227705204336,498 C 52.06,416.8 244.06,132.4 436.05977229479566,92 C 628.06,51.6 724.06,280.2 916.0597722947957,296 C 1108.06,311.8 1204.06,147.8 1396.0597722947957,171 C 1588.06,194.2 1867.27,405 1876.0597722947957,412 C 1884.85,419 1527.21,247.2 1440,206" stroke="rgba(19, 226, 211, 0.58)" stroke-width="2"></path><path d="M -33.386454675634354,57 C 62.61,143.4 254.61,488 446.61354532436565,489 C 638.61,490 734.61,103.4 926.6135453243656,62 C 1118.61,20.6 1214.61,273.2 1406.6135453243655,282 C 1598.61,290.8 1879.94,95.8 1886.6135453243655,106 C 1893.29,116.2 1529.32,287.6 1440,333" stroke="rgba(19, 226, 211, 0.58)" stroke-width="2"></path><path d="M -481.6490201224841,202 C -385.65,254.8 -193.65,488.8 -1.6490201224841172,466 C 190.35,443.2 286.35,102.2 478.3509798775159,88 C 670.35,73.8 766.35,382.8 958.3509798775159,395 C 1150.35,407.2 1342.02,128.8 1438.3509798775158,149 C 1534.68,169.2 1439.67,426.6 1440,496" stroke="rgba(19, 226, 211, 0.58)" stroke-width="2"></path><path d="M -173.28248436702688,106 C -77.28,180.8 114.72,461 306.7175156329731,480 C 498.72,499 594.72,238.8 786.7175156329731,201 C 978.72,163.2 1074.72,293.6 1266.7175156329731,291 C 1458.72,288.4 1712.06,148 1746.7175156329731,188 C 1781.37,228 1501.34,430.4 1440,491" stroke="rgba(19, 226, 211, 0.58)" stroke-width="2"></path></g><defs><mask id="SvgjsMask1908"><rect width="1440" height="560" fill="#ffffff"></rect></mask><radialGradient cx="50%" cy="50%" r="772.53" gradientUnits="userSpaceOnUse" id="SvgjsRadialGradient1909"><stop stop-color="rgba(14, 42, 71, 1)" offset="0"></stop><stop stop-color="rgba(1, 94, 214, 1)" offset="0.54"></stop></radialGradient></defs></svg>